<?xml version="1.0" encoding="UTF-8" standalone="no"?>
<!-- Created with Inkscape (http://www.inkscape.org/) -->

<svg
   width="145.78542mm"
   height="29.36875mm"
   viewBox="0 0 145.78542 29.36875"
   version="1.1"
   id="svg12840"
   inkscape:version="1.1.2 (0a00cf5339, 2022-02-04)"
   sodipodi:docname="header_panel.svg"
   xmlns:inkscape="http://www.inkscape.org/namespaces/inkscape"
   xmlns:sodipodi="http://sodipodi.sourceforge.net/DTD/sodipodi-0.dtd"
   xmlns:xlink="http://www.w3.org/1999/xlink"
   xmlns="http://www.w3.org/2000/svg"
   xmlns:svg="http://www.w3.org/2000/svg">
  <sodipodi:namedview
     id="namedview12842"
     pagecolor="#ffffff"
     bordercolor="#666666"
     borderopacity="1.0"
     inkscape:pageshadow="2"
     inkscape:pageopacity="0.0"
     inkscape:pagecheckerboard="0"
     inkscape:document-units="mm"
     showgrid="false"
     fit-margin-top="0"
     fit-margin-left="0"
     fit-margin-right="0"
     fit-margin-bottom="0"
     inkscape:zoom="3.5225584"
     inkscape:cx="238.60499"
     inkscape:cy="128.45777"
     inkscape:window-width="3840"
     inkscape:window-height="2079"
     inkscape:window-x="0"
     inkscape:window-y="0"
     inkscape:window-maximized="1"
     inkscape:current-layer="layer1" />
  <defs
     id="defs12837">
    <linearGradient
       id="id263"
       gradientUnits="userSpaceOnUse"
       xlink:href="#id207"
       x1="2605.6201"
       y1="1024.7"
       x2="2562.0801"
       y2="1024.6899" />
    <linearGradient
       id="id207"
       gradientUnits="userSpaceOnUse"
       x1="3580.3301"
       y1="2168.99"
       x2="3527.6499"
       y2="2168.99">
      <stop
         offset="0"
         style="stop-opacity:1; stop-color:#8E4D25"
         id="stop622" />
      <stop
         offset="1"
         style="stop-opacity:1; stop-color:#723E1E"
         id="stop624" />
    </linearGradient>
    <linearGradient
       id="id337"
       gradientUnits="userSpaceOnUse"
       xlink:href="#id184"
       x1="2596.76"
       y1="1029.86"
       x2="2567.96"
       y2="1029.86" />
    <linearGradient
       id="id184"
       gradientUnits="userSpaceOnUse"
       x1="3717.8501"
       y1="1050.03"
       x2="3690.4399"
       y2="1050.03">
      <stop
         offset="0"
         style="stop-opacity:1; stop-color:#AC5D2D"
         id="stop583" />
      <stop
         offset="1"
         style="stop-opacity:1; stop-color:#8E4D25"
         id="stop585" />
    </linearGradient>
    <linearGradient
       id="id311"
       gradientUnits="userSpaceOnUse"
       xlink:href="#id181"
       x1="2562.25"
       y1="1035.0699"
       x2="2602.1499"
       y2="1035.0699" />
    <linearGradient
       id="id181"
       gradientUnits="userSpaceOnUse"
       x1="784.25897"
       y1="118.526"
       x2="835.94202"
       y2="118.522">
      <stop
         offset="0"
         style="stop-opacity:1; stop-color:#723E1E"
         id="stop576" />
      <stop
         offset="1"
         style="stop-opacity:1; stop-color:#462613"
         id="stop578" />
    </linearGradient>
    <linearGradient
       id="id285"
       gradientUnits="userSpaceOnUse"
       xlink:href="#id187"
       x1="2587.9099"
       y1="1049.3199"
       x2="2690.3999"
       y2="1049.3101" />
    <linearGradient
       id="id187"
       gradientUnits="userSpaceOnUse"
       x1="3278.45"
       y1="1068.55"
       x2="3376.02"
       y2="1068.55">
      <stop
         offset="0"
         style="stop-opacity:1; stop-color:#8E4D25"
         id="stop590" />
      <stop
         offset="1"
         style="stop-opacity:1; stop-color:#AC5D2D"
         id="stop592" />
    </linearGradient>
    <linearGradient
       id="id344"
       gradientUnits="userSpaceOnUse"
       xlink:href="#id172"
       x1="2570.0601"
       y1="1050.01"
       x2="2672.26"
       y2="1050.01" />
    <linearGradient
       id="id172"
       gradientUnits="userSpaceOnUse"
       x1="3904.1899"
       y1="2199.6299"
       x2="4027.8501"
       y2="2199.6201">
      <stop
         offset="0"
         style="stop-opacity:1; stop-color:#AC5D2D"
         id="stop559" />
      <stop
         offset="1"
         style="stop-opacity:1; stop-color:#E58C55"
         id="stop561" />
    </linearGradient>
    <linearGradient
       id="id345"
       gradientUnits="userSpaceOnUse"
       xlink:href="#id207"
       x1="2302.3999"
       y1="1024.7"
       x2="2258.8701"
       y2="1024.6899" />
    <linearGradient
       id="id320"
       gradientUnits="userSpaceOnUse"
       xlink:href="#id184"
       x1="2301.03"
       y1="1029.86"
       x2="2272.23"
       y2="1029.86" />
    <radialGradient
       id="id408"
       gradientUnits="userSpaceOnUse"
       gradientTransform="matrix(6.83715e-5,0.315473,-1.43798,0.00155946,3889,259)"
       xlink:href="#id398"
       cx="2417.8301"
       cy="1023.28"
       r="215.567"
       fx="2417.8301"
       fy="1023.28" />
    <radialGradient
       id="id398"
       gradientUnits="userSpaceOnUse"
       gradientTransform="matrix(6.83715e-5,0.315473,-1.43798,0.00155946,4815,2865)"
       cx="473.867"
       cy="3019.2"
       r="215.567"
       fx="473.867"
       fy="3019.2">
      <stop
         offset="0"
         style="stop-opacity:1; stop-color:#CFDFDD"
         id="stop865" />
      <stop
         offset="0.85098"
         style="stop-opacity:1; stop-color:#C4D8D5"
         id="stop867" />
      <stop
         offset="1"
         style="stop-opacity:1; stop-color:#B9D1CD"
         id="stop869" />
    </radialGradient>
    <radialGradient
       id="id492"
       gradientUnits="userSpaceOnUse"
       gradientTransform="matrix(1,0,0,0.257814,0,759)"
       xlink:href="#id376"
       cx="2417.8301"
       cy="1022.04"
       r="124.467"
       fx="2417.8301"
       fy="1022.04" />
    <radialGradient
       id="id376"
       gradientUnits="userSpaceOnUse"
       gradientTransform="matrix(1,0,0,0.257814,0,759)"
       cx="402.06601"
       cy="1022.04"
       r="124.467"
       fx="402.06601"
       fy="1022.04">
      <stop
         offset="0"
         style="stop-opacity:1; stop-color:white"
         id="stop825" />
      <stop
         offset="1"
         style="stop-opacity:1; stop-color:#CFDFDD"
         id="stop827" />
    </radialGradient>
    <clipPath
       id="id100">
      <path
         d="m 2307,990 h 222 c 7,0 13,6 13,14 v 36 c 0,8 -6,14 -13,14 h -222 c -7,0 -14,-6 -14,-14 v -36 c 0,-8 6,-14 14,-14 z"
         id="path317" />
    </clipPath>
    <linearGradient
       id="id671"
       gradientUnits="userSpaceOnUse"
       xlink:href="#id644"
       x1="2423.1899"
       y1="1041.85"
       x2="2423.1899"
       y2="1022.45" />
    <linearGradient
       id="id644"
       gradientUnits="userSpaceOnUse"
       x1="604.11499"
       y1="127.307"
       x2="604.11499"
       y2="102.177">
      <stop
         offset="0"
         style="stop-opacity:1; stop-color:#CFDFDD"
         id="stop1179" />
      <stop
         offset="1"
         style="stop-opacity:1; stop-color:white"
         id="stop1181" />
    </linearGradient>
    <linearGradient
       id="id714"
       gradientUnits="userSpaceOnUse"
       xlink:href="#id680"
       x1="2423.05"
       y1="1042.1899"
       x2="2423.05"
       y2="1023.41" />
    <linearGradient
       id="id680"
       gradientUnits="userSpaceOnUse"
       x1="4540.27"
       y1="915.06"
       x2="4540.27"
       y2="897.17902">
      <stop
         offset="0"
         style="stop-opacity:1; stop-color:#D1E1DF"
         id="stop1235" />
      <stop
         offset="1"
         style="stop-opacity:1; stop-color:white"
         id="stop1237" />
    </linearGradient>
    <linearGradient
       id="id760"
       gradientUnits="userSpaceOnUse"
       xlink:href="#id722"
       x1="2422.9199"
       y1="1042.53"
       x2="2422.9199"
       y2="1024.36" />
    <linearGradient
       id="id722"
       gradientUnits="userSpaceOnUse"
       x1="472.66699"
       y1="2227.1299"
       x2="472.66699"
       y2="2205.1499">
      <stop
         offset="0"
         style="stop-opacity:1; stop-color:#D4E2E0"
         id="stop1301" />
      <stop
         offset="1"
         style="stop-opacity:1; stop-color:white"
         id="stop1303" />
    </linearGradient>
    <linearGradient
       id="id767"
       gradientUnits="userSpaceOnUse"
       xlink:href="#id764"
       x1="819.4884"
       y1="3083.3943"
       x2="819.4884"
       y2="3071.7769"
       gradientTransform="scale(2.9564744,0.33824071)" />
    <linearGradient
       id="id764"
       gradientUnits="objectBoundingBox"
       x1="0.516087"
       y1="0.145548"
       x2="0.516087"
       y2="0">
      <stop
         offset="0"
         style="stop-opacity:1; stop-color:#D6E4E2"
         id="stop1367" />
      <stop
         offset="1"
         style="stop-opacity:1; stop-color:white"
         id="stop1369" />
    </linearGradient>
    <linearGradient
       id="id809"
       gradientUnits="userSpaceOnUse"
       xlink:href="#id806"
       x1="2422.6499"
       y1="1043.21"
       x2="2422.6499"
       y2="1026.28" />
    <linearGradient
       id="id806"
       gradientUnits="userSpaceOnUse"
       x1="406.89099"
       y1="1043.21"
       x2="406.89099"
       y2="1026.28">
      <stop
         offset="0"
         style="stop-opacity:1; stop-color:#D8E5E3"
         id="stop1429" />
      <stop
         offset="1"
         style="stop-opacity:1; stop-color:white"
         id="stop1431" />
    </linearGradient>
    <linearGradient
       id="id889"
       gradientUnits="userSpaceOnUse"
       xlink:href="#id859"
       x1="2422.52"
       y1="1043.55"
       x2="2422.52"
       y2="1027.23" />
    <linearGradient
       id="id859"
       gradientUnits="userSpaceOnUse"
       x1="3968.9099"
       y1="129.502"
       x2="3968.9099"
       y2="108.368">
      <stop
         offset="0"
         style="stop-opacity:1; stop-color:#DAE7E5"
         id="stop1518" />
      <stop
         offset="1"
         style="stop-opacity:1; stop-color:white"
         id="stop1520" />
    </linearGradient>
    <linearGradient
       id="id949"
       gradientUnits="userSpaceOnUse"
       xlink:href="#id926"
       x1="2422.3799"
       y1="1043.88"
       x2="2422.3799"
       y2="1028.1899" />
    <linearGradient
       id="id926"
       gradientUnits="objectBoundingBox"
       x1="0.51608801"
       y1="0.145529"
       x2="0.51608801"
       y2="0">
      <stop
         offset="0"
         style="stop-opacity:1; stop-color:#DDE8E7"
         id="stop1605" />
      <stop
         offset="1"
         style="stop-opacity:1; stop-color:white"
         id="stop1607" />
    </linearGradient>
    <linearGradient
       id="id998"
       gradientUnits="userSpaceOnUse"
       xlink:href="#id960"
       x1="2422.25"
       y1="1044.22"
       x2="2422.25"
       y2="1029.14" />
    <linearGradient
       id="id960"
       gradientUnits="userSpaceOnUse"
       x1="602.901"
       y1="130.379"
       x2="602.901"
       y2="110.844">
      <stop
         offset="0"
         style="stop-opacity:1; stop-color:#DFEAE8"
         id="stop1659" />
      <stop
         offset="1"
         style="stop-opacity:1; stop-color:white"
         id="stop1661" />
    </linearGradient>
    <linearGradient
       id="id1043"
       gradientUnits="userSpaceOnUse"
       xlink:href="#id1001"
       x1="2422.1201"
       y1="1044.5601"
       x2="2422.1201"
       y2="1030.1" />
    <linearGradient
       id="id1001"
       gradientUnits="objectBoundingBox"
       x1="0.51608801"
       y1="0.145528"
       x2="0.51608801"
       y2="0">
      <stop
         offset="0"
         style="stop-opacity:1; stop-color:#E1EBEA"
         id="stop1720" />
      <stop
         offset="1"
         style="stop-opacity:1; stop-color:white"
         id="stop1722" />
    </linearGradient>
    <linearGradient
       id="id1088"
       gradientUnits="userSpaceOnUse"
       xlink:href="#id1056"
       x1="2421.98"
       y1="1044.9"
       x2="2421.98"
       y2="1031.05" />
    <linearGradient
       id="id1056"
       gradientUnits="objectBoundingBox"
       x1="0.516087"
       y1="0.14554"
       x2="0.516087"
       y2="0">
      <stop
         offset="0"
         style="stop-opacity:1; stop-color:#E4EDEC"
         id="stop1799" />
      <stop
         offset="1"
         style="stop-opacity:1; stop-color:white"
         id="stop1801" />
    </linearGradient>
    <linearGradient
       id="id1140"
       gradientUnits="userSpaceOnUse"
       xlink:href="#id1112"
       x1="2421.8501"
       y1="1045.24"
       x2="2421.8501"
       y2="1032.01" />
    <linearGradient
       id="id1112"
       gradientUnits="objectBoundingBox"
       x1="0.51608801"
       y1="0.14552599"
       x2="0.51608801"
       y2="0">
      <stop
         offset="0"
         style="stop-opacity:1; stop-color:#E6EEED"
         id="stop1891" />
      <stop
         offset="1"
         style="stop-opacity:1; stop-color:white"
         id="stop1893" />
    </linearGradient>
    <linearGradient
       id="id1190"
       gradientUnits="userSpaceOnUse"
       xlink:href="#id1151"
       x1="2421.71"
       y1="1045.58"
       x2="2421.71"
       y2="1032.97" />
    <linearGradient
       id="id1151"
       gradientUnits="userSpaceOnUse"
       x1="602.20697"
       y1="132.13499"
       x2="602.20697"
       y2="115.797">
      <stop
         offset="0"
         style="stop-opacity:1; stop-color:#E8F0EF"
         id="stop1946" />
      <stop
         offset="1"
         style="stop-opacity:1; stop-color:white"
         id="stop1948" />
    </linearGradient>
    <linearGradient
       id="id1235"
       gradientUnits="userSpaceOnUse"
       xlink:href="#id1199"
       x1="2421.5801"
       y1="1045.92"
       x2="2421.5801"
       y2="1033.92" />
    <linearGradient
       id="id1199"
       gradientUnits="userSpaceOnUse"
       x1="4538.8599"
       y1="918.60797"
       x2="4538.8599"
       y2="907.18903">
      <stop
         offset="0"
         style="stop-opacity:1; stop-color:#EAF1F0"
         id="stop2010" />
      <stop
         offset="1"
         style="stop-opacity:1; stop-color:white"
         id="stop2012" />
    </linearGradient>
    <linearGradient
       id="id1265"
       gradientUnits="userSpaceOnUse"
       xlink:href="#id1257"
       x1="2421.45"
       y1="1046.26"
       x2="2421.45"
       y2="1034.88" />
    <linearGradient
       id="id1257"
       gradientUnits="userSpaceOnUse"
       x1="4538.7402"
       y1="918.93103"
       x2="4538.7402"
       y2="908.09802">
      <stop
         offset="0"
         style="stop-opacity:1; stop-color:#EDF3F2"
         id="stop2100" />
      <stop
         offset="1"
         style="stop-opacity:1; stop-color:white"
         id="stop2102" />
    </linearGradient>
    <linearGradient
       id="id1321"
       gradientUnits="userSpaceOnUse"
       xlink:href="#id1282"
       x1="2421.3101"
       y1="1046.59"
       x2="2421.3101"
       y2="1035.83" />
    <linearGradient
       id="id1282"
       gradientUnits="objectBoundingBox"
       x1="0.51608896"
       y1="0.145569"
       x2="0.51608896"
       y2="0">
      <stop
         offset="0"
         style="stop-opacity:1; stop-color:#EFF4F4"
         id="stop2133" />
      <stop
         offset="1"
         style="stop-opacity:1; stop-color:white"
         id="stop2135" />
    </linearGradient>
    <linearGradient
       id="id1369"
       gradientUnits="userSpaceOnUse"
       xlink:href="#id1326"
       x1="2421.1799"
       y1="1046.9301"
       x2="2421.1799"
       y2="1036.79" />
    <linearGradient
       id="id1326"
       gradientUnits="userSpaceOnUse"
       x1="477.21899"
       y1="3042.8501"
       x2="477.21899"
       y2="3032.71">
      <stop
         offset="0"
         style="stop-opacity:1; stop-color:#F1F6F5"
         id="stop2205" />
      <stop
         offset="1"
         style="stop-opacity:1; stop-color:white"
         id="stop2207" />
    </linearGradient>
    <linearGradient
       id="id1412"
       gradientUnits="userSpaceOnUse"
       xlink:href="#id1373"
       x1="2421.05"
       y1="1047.27"
       x2="2421.05"
       y2="1037.75" />
    <linearGradient
       id="id1373"
       gradientUnits="userSpaceOnUse"
       x1="470.39801"
       y1="2232.8701"
       x2="470.39801"
       y2="2221.3401">
      <stop
         offset="0"
         style="stop-opacity:1; stop-color:#F4F7F7"
         id="stop2272" />
      <stop
         offset="1"
         style="stop-opacity:1; stop-color:white"
         id="stop2274" />
    </linearGradient>
    <linearGradient
       id="id1458"
       gradientUnits="userSpaceOnUse"
       xlink:href="#id1434"
       x1="2420.9099"
       y1="1047.61"
       x2="2420.9099"
       y2="1038.7" />
    <linearGradient
       id="id1434"
       gradientUnits="objectBoundingBox"
       x1="0.51609403"
       y1="0.14553399"
       x2="0.51609403"
       y2="0">
      <stop
         offset="0"
         style="stop-opacity:1; stop-color:#F6F9F9"
         id="stop2349" />
      <stop
         offset="1"
         style="stop-opacity:1; stop-color:white"
         id="stop2351" />
    </linearGradient>
    <linearGradient
       id="id1507"
       gradientUnits="userSpaceOnUse"
       xlink:href="#id1464"
       x1="2420.78"
       y1="1047.95"
       x2="2420.78"
       y2="1039.66" />
    <linearGradient
       id="id1464"
       gradientUnits="objectBoundingBox"
       x1="0.51608896"
       y1="0.145577"
       x2="0.51608896"
       y2="0">
      <stop
         offset="0"
         style="stop-opacity:1; stop-color:#F8FAFA"
         id="stop2407" />
      <stop
         offset="1"
         style="stop-opacity:1; stop-color:white"
         id="stop2409" />
    </linearGradient>
    <linearGradient
       id="id1556"
       gradientUnits="userSpaceOnUse"
       xlink:href="#id1521"
       x1="2420.6399"
       y1="1048.29"
       x2="2420.6399"
       y2="1040.61" />
    <linearGradient
       id="id1521"
       gradientUnits="objectBoundingBox"
       x1="0.51608396"
       y1="0.14553399"
       x2="0.51608396"
       y2="0">
      <stop
         offset="0"
         style="stop-opacity:1; stop-color:#FAFCFC"
         id="stop2488" />
      <stop
         offset="1"
         style="stop-opacity:1; stop-color:white"
         id="stop2490" />
    </linearGradient>
    <linearGradient
       id="id1604"
       gradientUnits="userSpaceOnUse"
       xlink:href="#id1562"
       x1="2420.51"
       y1="1048.63"
       x2="2420.51"
       y2="1041.5699" />
    <linearGradient
       id="id1562"
       gradientUnits="userSpaceOnUse"
       x1="476.54901"
       y1="3044.54"
       x2="476.54901"
       y2="3037.48">
      <stop
         offset="0"
         style="stop-opacity:1; stop-color:#FDFDFD"
         id="stop2541" />
      <stop
         offset="1"
         style="stop-opacity:1; stop-color:white"
         id="stop2543" />
    </linearGradient>
    <linearGradient
       id="id216"
       gradientUnits="userSpaceOnUse"
       xlink:href="#id181"
       x1="2231.6001"
       y1="1035.0699"
       x2="2271.5"
       y2="1035.0699" />
    <linearGradient
       id="id346"
       gradientUnits="userSpaceOnUse"
       xlink:href="#id187"
       x1="2168.6599"
       y1="1049.3199"
       x2="2271.1499"
       y2="1049.3101" />
    <linearGradient
       id="id270"
       gradientUnits="userSpaceOnUse"
       xlink:href="#id172"
       x1="2172.1299"
       y1="1050.01"
       x2="2274.3401"
       y2="1050.01" />
  </defs>
  <g
     inkscape:label="Ebene 1"
     inkscape:groupmode="layer"
     id="layer1"
     transform="translate(-25.894846,-87.502317)">
    <g
       id="g15868"
       transform="matrix(0.26458333,0,0,0.26458333,-541.10723,-171.26018)"
       style="clip-rule:evenodd;fill-rule:evenodd;image-rendering:optimizeQuality;shape-rendering:geometricPrecision;text-rendering:geometricPrecision">
      <g
         id="g15870">
        <path
           style="fill:#c56b33"
           inkscape:connector-curvature="0"
           id="path15872"
           d="m 2600,991 h -65 v 72 h 70 v -67 c 0,-3 -2,-5 -5,-5 z"
           class="fil12" />
        <path
           inkscape:connector-curvature="0"
           style="fill:url(#id263)"
           id="path15874"
           d="m 2600,993 h -65 v 72 h 70 v -66 c 0,-3 -2,-6 -5,-6 z"
           class="fil1321" />
        <path
           style="fill:#ecb28e"
           inkscape:connector-curvature="0"
           id="path15876"
           d="m 2600,993 h -65 v 1 h 68 c -1,0 -2,-1 -3,-1 z"
           class="fil14" />
        <path
           inkscape:connector-curvature="0"
           style="fill:url(#id337)"
           id="path15878"
           d="m 2593,1001 h -58 v 57 h 63 v -53 c 0,-2 -3,-4 -5,-4 z"
           class="fil1322" />
      </g>
      <g
         id="g15880">
        <path
           style="fill:#ecb28e"
           inkscape:connector-curvature="0"
           id="path15882"
           d="m 2604,996 c -1,-2 -2,-3 -4,-2 2,0 3,2 3,4 z"
           class="fil14" />
        <path
           style="fill:#c56b33"
           inkscape:connector-curvature="0"
           id="path15884"
           d="m 2605,1000 v -1 c 0,-2 -1,-5 -4,-5 3,1 3,6 1,7 z"
           class="fil12" />
        <path
           style="fill:#c56b33"
           inkscape:connector-curvature="0"
           id="path15886"
           d="m 2601,1002 h -34 c -2,0 -5,2 -5,5 v 74 h 43 v -69 -10 -6 0 0 c 0,3 -2,5 -4,6 z"
           class="fil12" />
        <path
           inkscape:connector-curvature="0"
           style="fill:url(#id311)"
           id="path15888"
           d="m 2601,1004 h -34 c -2,0 -5,2 -5,5 v 74 h 43 v -69 -10 -5 0 0 c 0,2 -2,4 -4,5 z"
           class="fil1323" />
        <path
           style="fill:#ecb28e"
           inkscape:connector-curvature="0"
           id="path15890"
           d="m 2563,1006 c 1,-1 3,-2 5,-2 -2,0 -3,2 -4,4 z"
           class="fil14" />
        <path
           style="fill:#ecb28e"
           inkscape:connector-curvature="0"
           id="path15892"
           d="m 2601,1004 h -34 c 0,0 -1,0 -2,0 h 35 c 2,0 4,-1 5,-3 v -2 0 0 c 0,2 -2,4 -4,5 z"
           class="fil14" />
        <path
           style="fill:#c56b33"
           inkscape:connector-curvature="0"
           id="path15894"
           d="m 2694,1012 h -3 -124 c -2,0 -5,-2 -5,-5 v 5 9 60 c 0,3 3,5 5,5 h 124 v 3 h 3 v -3 l -34,-38 31,-34 h 3 z"
           class="fil12" />
        <path
           inkscape:connector-curvature="0"
           style="fill:url(#id285)"
           id="path15896"
           d="m 2694,1014 h -127 c -2,0 -5,-2 -5,-5 v 5 9 60 c 0,3 3,6 5,6 h 127 l -34,-39 z"
           class="fil1324" />
        <path
           style="fill:#ecb28e"
           inkscape:connector-curvature="0"
           id="path15898"
           d="m 2694,1014 h -127 c -2,0 -5,-2 -5,-5 v 4 c 1,1 3,2 4,2 v 0 h 127 z"
           class="fil14" />
        <path
           inkscape:connector-curvature="0"
           style="fill:url(#id344)"
           id="path15900"
           d="m 2672,1022 h -106 c -2,0 -4,-2 -4,-4 v 4 7 47 c 0,2 2,4 4,4 h 106 l -26,-30 z"
           class="fil1325" />
        <path
           style="fill:#c56b33"
           inkscape:connector-curvature="0"
           id="path15902"
           d="m 2562,1009 v 0 c 0,-1 1,-5 4,-5 -2,2 -2,6 0,8 -2,-1 -3,-1 -4,-3 z"
           class="fil12" />
        <path
           style="fill:#ffffff;fill-opacity:0.2"
           inkscape:connector-curvature="0"
           id="path15904"
           d="m 2566,1016 v 0 c -1,0 -2,0 -2,1 v 69 c 0,1 1,1 2,1 v 0 c 0,0 1,0 1,-1 v -69 c 0,-1 -1,-1 -1,-1 z"
           class="fil19" />
        <polygon
           style="fill:#ecb28e"
           id="polygon15906"
           points="2693,1089 2659,1051 2660,1050 2694,1089 "
           class="fil14" />
      </g>
      <g
         id="g15908">
        <path
           style="fill:#c56b33"
           inkscape:connector-curvature="0"
           id="path15910"
           d="m 2237,991 h 65 v 72 h -70 v -67 c 0,-3 2,-5 5,-5 z"
           class="fil12" />
        <path
           inkscape:connector-curvature="0"
           style="fill:url(#id345)"
           id="path15912"
           d="m 2237,993 h 65 v 72 h -70 v -66 c 0,-3 2,-6 5,-6 z"
           class="fil1326" />
        <path
           style="fill:#ecb28e"
           inkscape:connector-curvature="0"
           id="path15914"
           d="m 2237,993 h 65 v 1 h -68 c 1,0 2,-1 3,-1 z"
           class="fil14" />
        <path
           inkscape:connector-curvature="0"
           style="fill:url(#id320)"
           id="path15916"
           d="m 2244,1001 h 58 v 57 h -63 v -53 c 0,-2 2,-4 5,-4 z"
           class="fil1327" />
      </g>
      <g
         id="g15918">
        <g
           id="g15920">
          <path
             style="fill:#53381d"
             inkscape:connector-curvature="0"
             id="path15922"
             d="m 2300,984 h 236 c 10,0 18,8 18,18 v 50 c 0,11 -8,19 -18,19 h -236 c -10,0 -18,-8 -18,-19 v -50 c 0,-10 8,-18 18,-18 z"
             class="fil22" />
          <path
             style="fill:#996633"
             inkscape:connector-curvature="0"
             id="path15924"
             d="m 2300,980 h 236 c 10,0 18,8 18,18 v 50 c 0,11 -8,19 -18,19 h -236 c -10,0 -18,-8 -18,-19 v -50 c 0,-10 8,-18 18,-18 z"
             class="fil2" />
          <path
             style="fill:#ca9560"
             inkscape:connector-curvature="0"
             id="path15926"
             d="m 2301,981 h 234 c 10,0 18,8 18,18 v 49 c 0,10 -8,18 -18,18 h -234 c -10,0 -18,-8 -18,-18 v -49 c 0,-10 8,-18 18,-18 z"
             class="fil23" />
          <path
             style="fill:#af753b"
             inkscape:connector-curvature="0"
             id="path15928"
             d="m 2301,981 h 233 c 10,0 18,8 18,18 v 48 c 0,10 -8,18 -18,18 h -233 c -9,0 -17,-8 -17,-18 v -48 c 0,-10 8,-18 17,-18 z"
             class="fil4" />
          <path
             style="fill:#53381d"
             inkscape:connector-curvature="0"
             id="path15930"
             d="m 2303,984 h 230 c 9,0 17,7 17,17 v 45 c 0,9 -8,17 -17,17 h -230 c -9,0 -17,-8 -17,-17 v -45 c 0,-10 8,-17 17,-17 z"
             class="fil22" />
        </g>
        <g
           id="g15932">
          <path
             style="fill:#7f9995"
             inkscape:connector-curvature="0"
             id="path15934"
             d="m 2304,985 h 228 c 9,0 16,7 16,16 v 44 c 0,9 -7,16 -16,16 h -228 c -9,0 -17,-7 -17,-16 v -44 c 0,-9 8,-16 17,-16 z"
             class="fil24" />
          <path
             inkscape:connector-curvature="0"
             style="fill:url(#id408)"
             id="path15936"
             d="m 2304,986 h 227 c 9,0 16,7 16,16 v 43 c 0,8 -7,15 -16,15 h -227 c -8,0 -16,-7 -16,-15 v -43 c 0,-9 8,-16 16,-16 z"
             class="fil1328" />
          <path
             style="fill:#ffffff;fill-opacity:0.2;stroke:#96b0ac;stroke-width:0.9;stroke-opacity:0.2"
             inkscape:connector-curvature="0"
             id="path15938"
             d="m 2531,987 c 8,0 15,6 16,14 l -129,22 -127,-29 c -1,2 -2,5 -2,8 l 129,21 -123,-33 c 2,-2 6,-3 9,-3 l 114,36 z"
             class="fil19 str0" />
          <path
             style="fill:#ffffff;fill-rule:nonzero"
             inkscape:connector-curvature="0"
             id="path15940"
             d="m 2307,989 h 222 c 4,0 7,2 10,5 2,2 4,6 4,10 v 36 c 0,4 -2,8 -4,10 -3,3 -6,5 -10,5 h -222 c -4,0 -7,-2 -10,-5 -3,-2 -4,-6 -4,-10 v -36 c 0,-4 1,-8 4,-10 3,-3 6,-5 10,-5 z m 222,1 h -222 c -4,0 -7,2 -9,4 -3,3 -4,6 -4,10 v 36 c 0,4 1,7 4,10 2,2 5,4 9,4 h 222 c 3,0 7,-2 9,-4 2,-3 4,-6 4,-10 v -36 c 0,-4 -2,-7 -4,-10 -2,-2 -6,-4 -9,-4 z"
             class="fil26" />
          <path
             inkscape:connector-curvature="0"
             style="fill:url(#id492)"
             id="path15942"
             d="m 2307,990 h 222 c 7,0 13,6 13,14 v 36 c 0,8 -6,14 -13,14 h -222 c -7,0 -14,-6 -14,-14 v -36 c 0,-8 6,-14 14,-14 z"
             class="fil1329" />
          <g
             clip-path="url(#id100)"
             id="g15944">
            <g
               id="g15946">
              <path
                 inkscape:connector-curvature="0"
                 style="fill:url(#id671);fill-opacity:0"
                 d="m 2419,1037 c 72,0 131,7 131,16 0,8 -59,15 -131,15 -72,0 -131,-7 -131,-15 0,-9 59,-16 131,-16 z"
                 class="fil1330"
                 id="path15948" />
              <g
                 id="g15950">
                <path
                   inkscape:connector-curvature="0"
                   style="fill:url(#id714);fill-opacity:0.047059"
                   id="path15952"
                   d="m 2419,1038 c 70,0 127,6 127,15 0,8 -57,14 -127,14 -70,0 -127,-6 -127,-14 0,-9 57,-15 127,-15 z"
                   class="fil1331" />
                <path
                   inkscape:connector-curvature="0"
                   style="fill:url(#id760);fill-opacity:0.094118"
                   id="path15954"
                   d="m 2419,1038 c 68,0 123,7 123,15 0,7 -55,14 -123,14 -68,0 -123,-7 -123,-14 0,-8 55,-15 123,-15 z"
                   class="fil1332" />
                <path
                   inkscape:connector-curvature="0"
                   style="fill:url(#id767);fill-opacity:0.141176"
                   id="path15956"
                   d="m 2419,1039 c 65,0 118,6 118,14 0,7 -53,13 -118,13 -65,0 -118,-6 -118,-13 0,-8 53,-14 118,-14 z"
                   class="fil1301" />
                <path
                   inkscape:connector-curvature="0"
                   style="fill:url(#id809);fill-opacity:0.192157"
                   id="path15958"
                   d="m 2419,1039 c 63,0 114,6 114,14 0,7 -51,13 -114,13 -63,0 -114,-6 -114,-13 0,-8 51,-14 114,-14 z"
                   class="fil1333" />
                <path
                   inkscape:connector-curvature="0"
                   style="fill:url(#id889);fill-opacity:0.239216"
                   id="path15960"
                   d="m 2419,1040 c 61,0 110,6 110,13 0,6 -49,12 -110,12 -61,0 -110,-6 -110,-12 0,-7 49,-13 110,-13 z"
                   class="fil1334" />
                <path
                   inkscape:connector-curvature="0"
                   style="fill:url(#id949);fill-opacity:0.286275"
                   id="path15962"
                   d="m 2419,1040 c 58,0 106,6 106,13 0,6 -48,12 -106,12 -59,0 -106,-6 -106,-12 0,-7 47,-13 106,-13 z"
                   class="fil1335" />
                <path
                   inkscape:connector-curvature="0"
                   style="fill:url(#id998);fill-opacity:0.333333"
                   id="path15964"
                   d="m 2419,1041 c 56,0 102,5 102,12 0,6 -46,11 -102,11 -56,0 -102,-5 -102,-11 0,-7 46,-12 102,-12 z"
                   class="fil1336" />
                <path
                   inkscape:connector-curvature="0"
                   style="fill:url(#id1043);fill-opacity:0.380392"
                   id="path15966"
                   d="m 2419,1041 c 54,0 98,5 98,12 0,6 -44,11 -98,11 -54,0 -98,-5 -98,-11 0,-7 44,-12 98,-12 z"
                   class="fil1337" />
                <path
                   inkscape:connector-curvature="0"
                   style="fill:url(#id1088);fill-opacity:0.427451"
                   id="path15968"
                   d="m 2419,1042 c 52,0 93,5 93,11 0,5 -41,10 -93,10 -52,0 -93,-5 -93,-10 0,-6 41,-11 93,-11 z"
                   class="fil1338" />
                <path
                   inkscape:connector-curvature="0"
                   style="fill:url(#id1140);fill-opacity:0.47451"
                   id="path15970"
                   d="m 2419,1042 c 49,0 89,5 89,11 0,5 -40,10 -89,10 -49,0 -89,-5 -89,-10 0,-6 40,-11 89,-11 z"
                   class="fil1339" />
                <path
                   inkscape:connector-curvature="0"
                   style="fill:url(#id1190);fill-opacity:0.52549"
                   id="path15972"
                   d="m 2419,1043 c 47,0 85,4 85,10 0,5 -38,9 -85,9 -47,0 -85,-4 -85,-9 0,-6 38,-10 85,-10 z"
                   class="fil1340" />
                <path
                   inkscape:connector-curvature="0"
                   style="fill:url(#id1235);fill-opacity:0.572549"
                   id="path15974"
                   d="m 2419,1043 c 45,0 81,4 81,10 0,5 -36,9 -81,9 -45,0 -81,-4 -81,-9 0,-6 36,-10 81,-10 z"
                   class="fil1341" />
                <path
                   inkscape:connector-curvature="0"
                   style="fill:url(#id1265);fill-opacity:0.619608"
                   id="path15976"
                   d="m 2419,1044 c 42,0 77,4 77,9 0,4 -35,8 -77,8 -42,0 -77,-4 -77,-8 0,-5 35,-9 77,-9 z"
                   class="fil1342" />
                <path
                   inkscape:connector-curvature="0"
                   style="fill:url(#id1321);fill-opacity:0.666667"
                   id="path15978"
                   d="m 2419,1044 c 40,0 73,4 73,9 0,4 -33,8 -73,8 -40,0 -73,-4 -73,-8 0,-5 33,-9 73,-9 z"
                   class="fil1343" />
                <path
                   inkscape:connector-curvature="0"
                   style="fill:url(#id1369);fill-opacity:0.713725"
                   id="path15980"
                   d="m 2419,1045 c 38,0 68,3 68,8 0,4 -30,7 -68,7 -38,0 -68,-3 -68,-7 0,-5 30,-8 68,-8 z"
                   class="fil1344" />
                <path
                   inkscape:connector-curvature="0"
                   style="fill:url(#id1412);fill-opacity:0.760784"
                   id="path15982"
                   d="m 2419,1045 c 35,0 64,3 64,8 0,4 -29,7 -64,7 -36,0 -64,-3 -64,-7 0,-5 28,-8 64,-8 z"
                   class="fil1345" />
                <path
                   inkscape:connector-curvature="0"
                   style="fill:url(#id1458);fill-opacity:0.807843"
                   id="path15984"
                   d="m 2419,1046 c 33,0 60,3 60,7 0,3 -27,6 -60,6 -33,0 -60,-3 -60,-6 0,-4 27,-7 60,-7 z"
                   class="fil1346" />
                <path
                   inkscape:connector-curvature="0"
                   style="fill:url(#id1507);fill-opacity:0.858824"
                   id="path15986"
                   d="m 2419,1046 c 31,0 56,3 56,7 0,3 -25,6 -56,6 -31,0 -56,-3 -56,-6 0,-4 25,-7 56,-7 z"
                   class="fil1347" />
                <path
                   inkscape:connector-curvature="0"
                   style="fill:url(#id1556);fill-opacity:0.905882"
                   id="path15988"
                   d="m 2419,1047 c 29,0 52,2 52,6 0,3 -23,5 -52,5 -29,0 -52,-2 -52,-5 0,-4 23,-6 52,-6 z"
                   class="fil1348" />
                <path
                   inkscape:connector-curvature="0"
                   style="fill:url(#id1604);fill-opacity:0.952941"
                   id="path15990"
                   d="m 2419,1047 c 26,0 48,2 48,6 0,3 -22,5 -48,5 -26,0 -48,-2 -48,-5 0,-4 22,-6 48,-6 z"
                   class="fil1349" />
              </g>
              <ellipse
                 style="fill:#ffffff"
                 id="ellipse15992"
                 ry="5"
                 rx="43"
                 cy="1053"
                 cx="2419"
                 class="fil49" />
            </g>
          </g>
          <path
             style="fill:none"
             inkscape:connector-curvature="0"
             id="path15994"
             d="m 2307,990 h 222 c 7,0 13,6 13,14 v 36 c 0,8 -6,14 -13,14 h -222 c -7,0 -14,-6 -14,-14 v -36 c 0,-8 6,-14 14,-14 z"
             class="fil50" />
          <path
             style="fill:#ffffff;fill-opacity:0.301961"
             inkscape:connector-curvature="0"
             id="path15996"
             d="m 2541,1023 c -41,-9 -168,-3 -197,0 -9,-7 -17,-13 -26,-20 h -1 v -1 c 5,-4 10,-7 15,-11 h 196 c 7,0 13,6 13,13 z m -199,0 c -20,3 -36,4 -47,0 v -2 c 6,-6 13,-12 21,-18 l 1,2 c 9,6 17,12 25,18 z m -47,-4 v -15 c 0,-5 2,-9 5,-11 5,3 10,6 14,10 -6,5 -13,10 -19,16 z m 7,-27 c 2,-1 4,-1 6,-1 h 22 c -5,3 -9,7 -14,10 v 1 c -5,-4 -10,-7 -14,-10 z"
             class="fil51" />
        </g>
        <polygon
           style="fill:#ffffff;fill-rule:nonzero"
           id="polygon15998"
           points="2469,986 2471,986 2474,990 2481,992 2484,989 2486,986 2487,986 2485,990 2482,993 2482,995 2481,993 2473,991 "
           class="fil26" />
        <g
           id="g16000">
          <path
             style="fill:#53381d"
             inkscape:connector-curvature="0"
             id="path16002"
             d="m 2296,980 h 11 v 15 c 0,5 -4,9 -9,9 h -19 v -8 c 0,-9 8,-16 17,-16 z"
             class="fil22" />
          <path
             style="fill:#996633"
             inkscape:connector-curvature="0"
             id="path16004"
             d="m 2296,978 h 9 l 2,2 v 13 c 0,5 -4,10 -9,10 h -19 v -9 c 0,-9 8,-16 17,-16 z"
             class="fil2" />
          <path
             style="fill:#af753b"
             inkscape:connector-curvature="0"
             id="path16006"
             d="m 2307,980 v 0 13 c 0,5 -4,10 -9,10 h -17 v -7 c 0,-9 8,-16 17,-16 z"
             class="fil4" />
          <circle
             style="fill:#ca9560"
             id="circle16008"
             r="5"
             cy="995"
             cx="2299"
             class="fil23" />
          <polygon
             style="fill:#53381d"
             id="polygon16010"
             points="2279,1007 2279,1003 2282,1003 2282,1009 "
             class="fil22" />
          <polygon
             style="fill:#996633"
             id="polygon16012"
             points="2279,1004 2281,1003 2280,1002 2279,1003 "
             class="fil2" />
          <polygon
             style="fill:#53381d"
             id="polygon16014"
             points="2281,1006 2283,1004 2281,1004 "
             class="fil22" />
          <path
             style="fill:#ca9560"
             inkscape:connector-curvature="0"
             id="path16016"
             d="m 2307,980 v 0 0 h -9 c -9,0 -16,7 -16,16 v 7 h -1 v -7 c 0,-9 8,-16 17,-16 z"
             class="fil23" />
          <circle
             style="fill:#53381d"
             id="circle16018"
             r="5"
             cy="995"
             cx="2299"
             class="fil22" />
          <circle
             style="fill:#996633"
             id="circle16020"
             r="3"
             cy="995"
             cx="2299"
             class="fil2" />
        </g>
        <g
           id="g16022">
          <path
             style="fill:#53381d"
             inkscape:connector-curvature="0"
             id="path16024"
             d="m 2540,980 h -11 v 15 c 0,5 4,9 9,9 h 18 v -8 c 0,-9 -7,-16 -16,-16 z"
             class="fil22" />
          <path
             style="fill:#996633"
             inkscape:connector-curvature="0"
             id="path16026"
             d="m 2540,978 h -10 l -1,2 v 13 c 0,5 4,10 9,10 h 18 v -9 c 0,-9 -7,-16 -16,-16 z"
             class="fil2" />
          <path
             style="fill:#af753b"
             inkscape:connector-curvature="0"
             id="path16028"
             d="m 2529,980 v 0 13 c 0,5 4,10 9,10 h 17 v -7 c 0,-9 -8,-16 -17,-16 z"
             class="fil4" />
          <circle
             style="fill:#ca9560"
             id="circle16030"
             r="5"
             cy="995"
             cx="2537"
             class="fil23" />
          <polygon
             style="fill:#53381d"
             id="polygon16032"
             points="2556,1007 2556,1003 2554,1003 2554,1009 "
             class="fil22" />
          <polygon
             style="fill:#996633"
             id="polygon16034"
             points="2556,1004 2555,1003 2556,1002 2556,1003 "
             class="fil2" />
          <polygon
             style="fill:#53381d"
             id="polygon16036"
             points="2554,1006 2553,1004 2554,1004 "
             class="fil22" />
          <path
             style="fill:#ca9560"
             inkscape:connector-curvature="0"
             id="path16038"
             d="m 2529,980 v 0 0 h 9 c 9,0 16,7 16,16 v 7 h 1 v -7 c 0,-9 -8,-16 -17,-16 z"
             class="fil23" />
          <circle
             style="fill:#53381d"
             id="circle16040"
             r="5"
             cy="995"
             cx="2537"
             class="fil22" />
          <circle
             style="fill:#996633"
             id="circle16042"
             r="3"
             cy="995"
             cx="2537"
             class="fil2" />
        </g>
        <g
           id="g16044">
          <path
             style="fill:#53381d"
             inkscape:connector-curvature="0"
             id="path16046"
             d="m 2296,1072 h 7 l 2,-3 v -18 c -1,-2 -4,-4 -7,-4 h -13 -4 l -2,2 v 7 c 0,9 8,16 17,16 z"
             class="fil22" />
          <path
             style="fill:#996633"
             inkscape:connector-curvature="0"
             id="path16048"
             d="m 2296,1069 h 9 l 2,-2 v -13 c 0,-5 -4,-10 -9,-10 h -13 -4 l -2,2 v 6 c 0,10 8,17 17,17 z"
             class="fil2" />
          <path
             style="fill:#af753b"
             inkscape:connector-curvature="0"
             id="path16050"
             d="m 2307,1067 v 0 -13 c 0,-5 -4,-10 -9,-10 h -13 -4 v 0 7 c 0,9 8,16 17,16 z"
             class="fil4" />
          <path
             style="fill:#ca9560"
             inkscape:connector-curvature="0"
             id="path16052"
             d="m 2299,1058 c 2,0 4,-3 4,-5 0,-3 -2,-5 -4,-5 -3,0 -5,2 -5,5 0,2 2,5 5,5 z"
             class="fil23" />
          <path
             style="fill:#ca9560"
             inkscape:connector-curvature="0"
             id="path16054"
             d="m 2307,1067 v 0 0 h -9 c -9,0 -16,-8 -16,-17 v -6 h -1 v 0 7 c 0,9 8,16 17,16 z"
             class="fil23" />
          <path
             style="fill:#53381d"
             inkscape:connector-curvature="0"
             id="path16056"
             d="m 2299,1057 c 2,0 4,-2 4,-5 0,-2 -2,-5 -4,-5 -3,0 -5,3 -5,5 0,3 2,5 5,5 z"
             class="fil22" />
          <path
             style="fill:#996633"
             inkscape:connector-curvature="0"
             id="path16058"
             d="m 2299,1056 c 1,0 3,-1 3,-3 0,-2 -2,-3 -3,-3 -2,0 -4,1 -4,3 0,2 2,3 4,3 z"
             class="fil2" />
          <path
             style="fill:#ca9560"
             inkscape:connector-curvature="0"
             id="path16060"
             d="m 2307,1067 v 0 -13 c 0,-5 -4,-10 -9,-10 h -13 -4 v 0 1 h 4 12 c 5,0 10,4 10,9 z"
             class="fil23" />
        </g>
        <g
           id="g16062">
          <path
             style="fill:#53381d"
             inkscape:connector-curvature="0"
             id="path16064"
             d="m 2540,1072 h -7 l -3,-3 v -18 c 2,-2 5,-4 8,-4 h 12 5 l 1,2 v 7 c 0,9 -7,16 -16,16 z"
             class="fil22" />
          <path
             style="fill:#996633"
             inkscape:connector-curvature="0"
             id="path16066"
             d="m 2540,1069 h -10 l -1,-2 v -13 c 0,-5 4,-10 9,-10 h 12 5 l 1,2 v 6 c 0,10 -7,17 -16,17 z"
             class="fil2" />
          <path
             style="fill:#af753b"
             inkscape:connector-curvature="0"
             id="path16068"
             d="m 2529,1067 v 0 -13 c 0,-5 4,-10 9,-10 h 12 5 v 0 7 c 0,9 -8,16 -17,16 z"
             class="fil4" />
          <path
             style="fill:#ca9560"
             inkscape:connector-curvature="0"
             id="path16070"
             d="m 2537,1058 c -2,0 -5,-3 -5,-5 0,-3 3,-5 5,-5 3,0 5,2 5,5 0,2 -2,5 -5,5 z"
             class="fil23" />
          <path
             style="fill:#ca9560"
             inkscape:connector-curvature="0"
             id="path16072"
             d="m 2529,1067 v 0 0 h 9 c 9,0 16,-8 16,-17 v -6 h 1 v 0 7 c 0,9 -8,16 -17,16 z"
             class="fil23" />
          <path
             style="fill:#53381d"
             inkscape:connector-curvature="0"
             id="path16074"
             d="m 2537,1057 c -2,0 -5,-2 -5,-5 0,-2 3,-5 5,-5 3,0 5,3 5,5 0,3 -2,5 -5,5 z"
             class="fil22" />
          <path
             style="fill:#996633"
             inkscape:connector-curvature="0"
             id="path16076"
             d="m 2537,1056 c -2,0 -3,-1 -3,-3 0,-2 1,-3 3,-3 2,0 3,1 3,3 0,2 -1,3 -3,3 z"
             class="fil2" />
          <path
             style="fill:#ca9560"
             inkscape:connector-curvature="0"
             id="path16078"
             d="m 2529,1067 v 0 -13 c 0,-5 4,-10 9,-10 h 12 5 v 0 1 h -4 -12 c -5,0 -10,4 -10,9 z"
             class="fil23" />
        </g>
        <polygon
           style="fill:#ffffff"
           id="polygon16080"
           points="2409,1055 2423,1058 2437,1055 2436,1055 2429,1051 2419,1053 "
           class="fil49" />
        <polygon
           style="fill:#ffffff"
           id="polygon16082"
           points="2293,1022 2295,1025 2298,1025 2305,1022 2299,1027 2294,1028 2293,1031 2291,1028 2289,1028 2291,1026 "
           class="fil49" />
        <polygon
           style="fill:#7f9995"
           id="polygon16084"
           points="2436,1055 2429,1051 2419,1052 2411,1055 2423,1057 "
           class="fil24" />
        <polygon
           style="fill:#7f9995"
           id="polygon16086"
           points="2293,1021 2295,1025 2298,1024 2305,1022 2299,1026 2294,1027 2293,1030 2291,1027 2289,1028 2291,1025 "
           class="fil24" />
        <polygon
           style="fill:#7f9995;fill-rule:nonzero"
           id="polygon16088"
           points="2469,986 2471,986 2474,989 2481,991 2484,989 2486,986 2488,985 2485,990 2481,992 2482,994 2481,992 2473,991 "
           class="fil52" />
      </g>
      <g
         id="g16090">
        <path
           style="fill:#ecb28e"
           inkscape:connector-curvature="0"
           id="path16092"
           d="m 2232,996 c 1,-2 3,-3 5,-2 -2,0 -3,2 -4,4 z"
           class="fil14" />
        <path
           style="fill:#c56b33"
           inkscape:connector-curvature="0"
           id="path16094"
           d="m 2232,1000 v -1 c 0,-2 0,-5 3,-5 -2,1 -2,6 0,7 z"
           class="fil12" />
        <path
           style="fill:#c56b33"
           inkscape:connector-curvature="0"
           id="path16096"
           d="m 2236,1002 h 33 c 3,0 5,2 5,5 v 74 h -42 v -69 -10 -6 0 0 c 0,3 2,5 4,6 z"
           class="fil12" />
        <path
           inkscape:connector-curvature="0"
           style="fill:url(#id216)"
           id="path16098"
           d="m 2236,1004 h 33 c 3,0 5,2 5,5 v 74 h -42 v -69 -10 -5 0 0 c 0,2 2,4 4,5 z"
           class="fil1350" />
        <path
           style="fill:#ecb28e"
           inkscape:connector-curvature="0"
           id="path16100"
           d="m 2273,1006 c -1,-1 -2,-2 -4,-2 2,0 3,2 3,4 z"
           class="fil14" />
        <path
           style="fill:#ecb28e"
           inkscape:connector-curvature="0"
           id="path16102"
           d="m 2236,1004 h 33 c 1,0 2,0 3,0 h -35 c -3,0 -4,-1 -5,-3 v -2 0 0 c 0,2 2,4 4,5 z"
           class="fil14" />
        <path
           style="fill:#c56b33"
           inkscape:connector-curvature="0"
           id="path16104"
           d="m 2143,1012 h 3 123 c 3,0 5,-2 5,-5 v 5 9 60 c 0,3 -2,5 -5,5 h -123 v 3 h -3 v -3 l 34,-38 -32,-34 h -2 z"
           class="fil12" />
        <path
           inkscape:connector-curvature="0"
           style="fill:url(#id346)"
           id="path16106"
           d="m 2143,1014 h 126 c 3,0 5,-2 5,-5 v 5 9 60 c 0,3 -2,6 -5,6 h -126 l 34,-39 z"
           class="fil1351" />
        <path
           style="fill:#ecb28e"
           inkscape:connector-curvature="0"
           id="path16108"
           d="m 2143,1014 h 126 c 3,0 5,-2 5,-5 v 4 c -1,1 -2,2 -4,2 v 0 h -126 z"
           class="fil14" />
        <path
           inkscape:connector-curvature="0"
           style="fill:url(#id270)"
           id="path16110"
           d="m 2164,1022 h 106 c 3,0 4,-2 4,-4 v 4 7 47 c 0,2 -1,4 -4,4 h -106 l 27,-30 z"
           class="fil1352" />
        <path
           style="fill:#c56b33"
           inkscape:connector-curvature="0"
           id="path16112"
           d="m 2274,1009 v 0 c 0,-1 0,-5 -3,-5 2,2 2,6 0,8 1,-1 3,-1 3,-3 z"
           class="fil12" />
        <path
           style="fill:#ffffff;fill-opacity:0.2"
           inkscape:connector-curvature="0"
           id="path16114"
           d="m 2271,1016 v 0 c 1,0 1,0 1,1 v 69 c 0,1 0,1 -1,1 v 0 c -1,0 -1,0 -1,-1 v -69 c 0,-1 0,-1 1,-1 z"
           class="fil19" />
        <polygon
           style="fill:#ecb28e"
           id="polygon16116"
           points="2144,1089 2178,1051 2177,1050 2143,1089 "
           class="fil14" />
      </g>
    </g>
  </g>
</svg>
