<?xml version="1.0" encoding="UTF-8" standalone="no"?>
<!-- Created with Inkscape (http://www.inkscape.org/) -->

<svg
   width="1000"
   height="1000"
   viewBox="0 0 264.58334 264.58332"
   version="1.1"
   id="svg14433"
   inkscape:version="1.1.2 (0a00cf5339, 2022-02-04)"
   sodipodi:docname="panel.svg"
   xmlns:inkscape="http://www.inkscape.org/namespaces/inkscape"
   xmlns:sodipodi="http://sodipodi.sourceforge.net/DTD/sodipodi-0.dtd"
   xmlns:xlink="http://www.w3.org/1999/xlink"
   xmlns="http://www.w3.org/2000/svg"
   xmlns:svg="http://www.w3.org/2000/svg">
  <sodipodi:namedview
     id="namedview14435"
     pagecolor="#ffffff"
     bordercolor="#666666"
     borderopacity="1.0"
     inkscape:pageshadow="2"
     inkscape:pageopacity="0.0"
     inkscape:pagecheckerboard="0"
     inkscape:document-units="px"
     showgrid="true"
     fit-margin-top="0"
     fit-margin-left="0"
     fit-margin-right="0"
     fit-margin-bottom="0"
     units="px"
     inkscape:snap-page="true"
     inkscape:snap-bbox="true"
     inkscape:bbox-nodes="true"
     showguides="true"
     inkscape:guide-bbox="true"
     inkscape:snap-global="true"
     inkscape:snap-nodes="false"
     inkscape:snap-bbox-edge-midpoints="false"
     inkscape:bbox-paths="false"
     inkscape:zoom="0.90509668"
     inkscape:cx="167.38543"
     inkscape:cy="381.72718"
     inkscape:window-width="3840"
     inkscape:window-height="2079"
     inkscape:window-x="0"
     inkscape:window-y="0"
     inkscape:window-maximized="1"
     inkscape:current-layer="layer1">
    <sodipodi:guide
       position="39.6875,224.89583"
       orientation="-1,0"
       id="guide14988"
       inkscape:label=""
       inkscape:locked="false"
       inkscape:color="rgb(0,0,255)" />
    <sodipodi:guide
       position="2.6458333,222.25"
       orientation="0,1"
       id="guide14990"
       inkscape:label=""
       inkscape:locked="false"
       inkscape:color="rgb(0,0,255)" />
    <sodipodi:guide
       position="224.89583,259.29166"
       orientation="-1,0"
       id="guide14994"
       inkscape:label=""
       inkscape:locked="false"
       inkscape:color="rgb(0,0,255)" />
    <inkscape:grid
       type="xygrid"
       id="grid14996"
       spacingx="2.6458333"
       spacingy="2.6458333" />
    <sodipodi:guide
       position="259.29166,39.687499"
       orientation="0,-1"
       id="guide14998" />
  </sodipodi:namedview>
  <defs
     id="defs14430">
    <radialGradient
       id="id354"
       gradientUnits="userSpaceOnUse"
       gradientTransform="matrix(-0.999999,0,0,-0.678245,5857,773)"
       xlink:href="#id349"
       cx="2928.28"
       cy="460.371"
       r="522.16803"
       fx="2928.28"
       fy="460.371" />
    <radialGradient
       id="id349"
       gradientUnits="userSpaceOnUse"
       gradientTransform="matrix(-0.999999,0,0,-0.678245,1196,773)"
       cx="597.78101"
       cy="460.371"
       r="522.16803"
       fx="597.78101"
       fy="460.371">
      <stop
         offset="0"
         style="stop-opacity:1; stop-color:#E9D7A7"
         id="stop772" />
      <stop
         offset="0.8"
         style="stop-opacity:1; stop-color:#E4CD93"
         id="stop774" />
      <stop
         offset="1"
         style="stop-opacity:1; stop-color:#E0C480"
         id="stop776" />
    </radialGradient>
    <radialGradient
       id="id352"
       gradientUnits="userSpaceOnUse"
       gradientTransform="matrix(-1,0,0,-0.678246,5857,773)"
       xlink:href="#id349"
       cx="2928.28"
       cy="460.371"
       r="522.16803"
       fx="2928.28"
       fy="460.371" />
    <radialGradient
       id="radialGradient14026"
       gradientUnits="userSpaceOnUse"
       gradientTransform="matrix(-0.999999,0,0,-0.678245,1196,773)"
       cx="597.78101"
       cy="460.371"
       r="522.16803"
       fx="597.78101"
       fy="460.371">
      <stop
         offset="0"
         style="stop-opacity:1; stop-color:#E9D7A7"
         id="stop14020" />
      <stop
         offset="0.8"
         style="stop-opacity:1; stop-color:#E4CD93"
         id="stop14022" />
      <stop
         offset="1"
         style="stop-opacity:1; stop-color:#E0C480"
         id="stop14024" />
    </radialGradient>
    <radialGradient
       id="id598"
       gradientUnits="userSpaceOnUse"
       gradientTransform="matrix(1.00089,0.662225,-1.59526,1.17905,254,-1652)"
       xlink:href="#id494"
       cx="2450.8999"
       cy="160.30299"
       r="49.107899"
       fx="2450.8999"
       fy="160.30299" />
    <radialGradient
       id="id494"
       gradientUnits="userSpaceOnUse"
       gradientTransform="matrix(-1.00089,0.662225,1.59526,1.17905,6445,-2246)"
       cx="3348.8601"
       cy="160.30299"
       r="49.107899"
       fx="3348.8601"
       fy="160.30299">
      <stop
         offset="0"
         style="stop-opacity:1; stop-color:white"
         id="stop1013" />
      <stop
         offset="1"
         style="stop-opacity:1; stop-color:#DAE6E5"
         id="stop1015" />
    </radialGradient>
    <radialGradient
       id="id541"
       gradientUnits="userSpaceOnUse"
       gradientTransform="matrix(0.855104,0.763995,-1.47891,1.2897,612,-1930)"
       xlink:href="#id376"
       cx="2461.3301"
       cy="172.36099"
       r="37.1539"
       fx="2461.3301"
       fy="172.36099" />
    <radialGradient
       id="id376"
       gradientUnits="userSpaceOnUse"
       gradientTransform="matrix(1,0,0,0.257814,0,759)"
       cx="402.06601"
       cy="1022.04"
       r="124.467"
       fx="402.06601"
       fy="1022.04">
      <stop
         offset="0"
         style="stop-opacity:1; stop-color:white"
         id="stop825" />
      <stop
         offset="1"
         style="stop-opacity:1; stop-color:#CFDFDD"
         id="stop827" />
    </radialGradient>
    <clipPath
       id="id78">
      <path
         d="m 2539,142 c -16,36 -67,103 -111,116 12,-92 26,-105 111,-116 z"
         id="path251" />
    </clipPath>
    <radialGradient
       inkscape:collect="always"
       xlink:href="#id494"
       id="radialGradient24721"
       gradientUnits="userSpaceOnUse"
       gradientTransform="matrix(-1.00089,0.662225,1.59526,1.17905,6445,-2246)"
       cx="3348.8601"
       cy="160.30299"
       fx="3348.8601"
       fy="160.30299"
       r="49.107899" />
    <radialGradient
       id="radialGradient14043"
       gradientUnits="userSpaceOnUse"
       gradientTransform="matrix(-1.00089,0.662225,1.59526,1.17905,6445,-2246)"
       cx="3348.8601"
       cy="160.30299"
       r="49.107899"
       fx="3348.8601"
       fy="160.30299">
      <stop
         offset="0"
         style="stop-opacity:1; stop-color:white"
         id="stop14039" />
      <stop
         offset="1"
         style="stop-opacity:1; stop-color:#DAE6E5"
         id="stop14041" />
    </radialGradient>
    <radialGradient
       id="id548"
       gradientUnits="userSpaceOnUse"
       gradientTransform="matrix(-0.855104,0.763995,1.47891,1.2897,6043,-2643)"
       xlink:href="#id376"
       cx="3394.6699"
       cy="172.36099"
       r="37.1539"
       fx="3394.6699"
       fy="172.36099" />
    <radialGradient
       id="radialGradient14050"
       gradientUnits="userSpaceOnUse"
       gradientTransform="matrix(1,0,0,0.257814,0,759)"
       cx="402.06601"
       cy="1022.04"
       r="124.467"
       fx="402.06601"
       fy="1022.04">
      <stop
         offset="0"
         style="stop-opacity:1; stop-color:white"
         id="stop14046" />
      <stop
         offset="1"
         style="stop-opacity:1; stop-color:#CFDFDD"
         id="stop14048" />
    </radialGradient>
    <clipPath
       id="id79">
      <path
         d="m 3317,142 c 16,36 67,103 111,116 -12,-92 -26,-105 -111,-116 z"
         id="path254" />
    </clipPath>
    <radialGradient
       id="id600"
       gradientUnits="userSpaceOnUse"
       gradientTransform="matrix(1.00089,-0.662225,-1.59526,-1.17905,1125,3162)"
       xlink:href="#id494"
       cx="2450.8999"
       cy="706.33801"
       r="49.107899"
       fx="2450.8999"
       fy="706.33801" />
    <radialGradient
       id="radialGradient14059"
       gradientUnits="userSpaceOnUse"
       gradientTransform="matrix(-1.00089,0.662225,1.59526,1.17905,6445,-2246)"
       cx="3348.8601"
       cy="160.30299"
       r="49.107899"
       fx="3348.8601"
       fy="160.30299">
      <stop
         offset="0"
         style="stop-opacity:1; stop-color:white"
         id="stop14055" />
      <stop
         offset="1"
         style="stop-opacity:1; stop-color:#DAE6E5"
         id="stop14057" />
    </radialGradient>
    <radialGradient
       id="id542"
       gradientUnits="userSpaceOnUse"
       gradientTransform="matrix(0.855104,-0.763995,-1.47891,-1.2897,1484,3626)"
       xlink:href="#id376"
       cx="2461.3301"
       cy="762.48401"
       r="37.1539"
       fx="2461.3301"
       fy="762.48401" />
    <radialGradient
       id="radialGradient14066"
       gradientUnits="userSpaceOnUse"
       gradientTransform="matrix(1,0,0,0.257814,0,759)"
       cx="402.06601"
       cy="1022.04"
       r="124.467"
       fx="402.06601"
       fy="1022.04">
      <stop
         offset="0"
         style="stop-opacity:1; stop-color:white"
         id="stop14062" />
      <stop
         offset="1"
         style="stop-opacity:1; stop-color:#CFDFDD"
         id="stop14064" />
    </radialGradient>
    <clipPath
       id="id80">
      <path
         d="m 2539,793 c -16,-36 -67,-103 -111,-116 12,92 26,105 111,116 z"
         id="path257" />
    </clipPath>
    <radialGradient
       id="id495"
       gradientUnits="userSpaceOnUse"
       gradientTransform="matrix(-1.00089,-0.662225,1.59526,-1.17905,5574,3757)"
       xlink:href="#id494"
       cx="3348.8601"
       cy="706.33801"
       r="49.107899"
       fx="3348.8601"
       fy="706.33801" />
    <radialGradient
       id="radialGradient14075"
       gradientUnits="userSpaceOnUse"
       gradientTransform="matrix(-1.00089,0.662225,1.59526,1.17905,6445,-2246)"
       cx="3348.8601"
       cy="160.30299"
       r="49.107899"
       fx="3348.8601"
       fy="160.30299">
      <stop
         offset="0"
         style="stop-opacity:1; stop-color:white"
         id="stop14071" />
      <stop
         offset="1"
         style="stop-opacity:1; stop-color:#DAE6E5"
         id="stop14073" />
    </radialGradient>
    <radialGradient
       id="id549"
       gradientUnits="userSpaceOnUse"
       gradientTransform="matrix(-0.855104,-0.763995,1.47891,-1.2897,5170,4339)"
       xlink:href="#id376"
       cx="3394.6699"
       cy="762.48401"
       r="37.1539"
       fx="3394.6699"
       fy="762.48401" />
    <radialGradient
       id="radialGradient14082"
       gradientUnits="userSpaceOnUse"
       gradientTransform="matrix(1,0,0,0.257814,0,759)"
       cx="402.06601"
       cy="1022.04"
       r="124.467"
       fx="402.06601"
       fy="1022.04">
      <stop
         offset="0"
         style="stop-opacity:1; stop-color:white"
         id="stop14078" />
      <stop
         offset="1"
         style="stop-opacity:1; stop-color:#CFDFDD"
         id="stop14080" />
    </radialGradient>
    <clipPath
       id="id81">
      <path
         d="m 3317,793 c 16,-36 67,-103 111,-116 -12,92 -26,105 -111,116 z"
         id="path260" />
    </clipPath>
  </defs>
  <g
     inkscape:label="Ebene 1"
     inkscape:groupmode="layer"
     id="layer1"
     transform="translate(29.378314,-37.474038)">
    <g
       id="g13626"
       style="clip-rule:evenodd;fill-rule:evenodd;image-rendering:optimizeQuality;shape-rendering:geometricPrecision;text-rendering:geometricPrecision"
       transform="matrix(0.25331098,0,0,0.36963767,-638.7812,-2.9013957)">
      <path
         style="fill:#53381d"
         inkscape:connector-curvature="0"
         id="path13628"
         d="m 2426,218 c 7,-41 34,-69 74,-74 257,-34 539,-38 856,0 41,5 68,33 74,74 27,164 27,341 0,506 -6,40 -33,69 -74,74 -317,38 -599,34 -856,0 -40,-6 -67,-34 -74,-74 -27,-165 -27,-342 0,-506 z"
         class="fil1" />
      <path
         style="fill:#996633"
         inkscape:connector-curvature="0"
         id="path13630"
         d="m 2426,211 c 7,-41 34,-69 74,-74 257,-35 539,-39 856,0 41,4 68,33 74,74 27,164 27,341 0,506 -6,40 -33,69 -74,74 -317,38 -599,34 -856,0 -40,-6 -67,-34 -74,-74 -27,-165 -27,-342 0,-506 z"
         class="fil2" />
      <path
         style="fill:#ca9560"
         inkscape:connector-curvature="0"
         id="path13632"
         d="m 2430,213 c 7,-40 34,-68 74,-74 254,-33 534,-37 849,0 40,5 67,34 73,74 27,163 27,338 0,502 -6,39 -33,68 -73,73 -315,38 -595,34 -849,0 -40,-5 -67,-34 -74,-73 -26,-164 -26,-339 0,-502 z"
         class="fil3" />
      <path
         style="fill:#af753b"
         inkscape:connector-curvature="0"
         id="path13634"
         d="m 2432,214 c 7,-40 33,-68 73,-74 254,-33 532,-37 846,0 40,5 67,34 73,74 27,162 27,337 0,500 -6,39 -33,68 -73,73 -314,37 -592,33 -846,0 -40,-5 -66,-34 -73,-73 -26,-163 -26,-338 0,-500 z"
         class="fil4" />
      <path
         style="fill:#412c17"
         inkscape:connector-curvature="0"
         id="path13636"
         d="m 2444,220 c 6,-39 32,-67 71,-72 248,-33 520,-37 826,0 39,5 65,33 72,72 26,158 26,329 0,488 -7,39 -33,66 -72,71 -306,37 -578,33 -826,0 -39,-5 -65,-32 -71,-71 -26,-159 -26,-330 0,-488 z"
         class="fil5" />
    </g>
    <g
       id="g13638"
       style="clip-rule:evenodd;fill-rule:evenodd;image-rendering:optimizeQuality;shape-rendering:geometricPrecision;text-rendering:geometricPrecision"
       transform="matrix(0.25331098,0,0,0.36963767,-638.7812,-2.9013957)">
      <path
         style="fill:#b78b2d"
         inkscape:connector-curvature="0"
         id="path13640"
         d="m 2465,231 c 6,-37 31,-63 68,-68 237,-31 497,-35 790,0 38,5 63,31 69,68 24,151 24,314 0,465 -6,37 -31,63 -69,68 -293,35 -553,31 -790,0 -37,-5 -62,-31 -68,-68 -25,-151 -25,-314 0,-465 z"
         class="fil6" />
      <polygon
         style="fill:#eedfba"
         id="polygon13642"
         points="2923,774 2939,778 2898,782 2876,778 2905,771 "
         class="fil7" />
      <path
         style="fill:#eedfba"
         inkscape:connector-curvature="0"
         id="path13644"
         d="m 2471,234 c 6,-36 31,-62 68,-66 233,-31 490,-35 779,0 37,4 61,30 67,66 25,148 25,306 0,454 -6,36 -30,62 -67,66 -289,35 -546,31 -779,0 -37,-4 -62,-30 -68,-66 -24,-148 -24,-306 0,-454 z"
         class="fil7" />
      <path
         inkscape:connector-curvature="0"
         style="fill:url(#id354)"
         id="path13646"
         d="m 2473,234 c 5,-36 30,-61 67,-66 233,-30 489,-34 777,0 37,4 61,30 67,66 24,147 24,305 0,453 -6,35 -30,61 -67,66 -288,34 -544,30 -777,0 -37,-5 -62,-31 -67,-66 -25,-148 -25,-306 0,-453 z"
         class="fil1080" />
      <polygon
         style="fill:#eedfba"
         id="polygon13648"
         points="2476,319 2461,325 2452,330 2453,322 2462,317 "
         class="fil7" />
      <polygon
         style="fill:#eedfba"
         id="polygon13650"
         points="2475,643 2467,657 2459,655 2458,648 2465,647 "
         class="fil7" />
      <polygon
         style="fill:#eedfba"
         id="polygon13652"
         points="3386,609 3395,620 3402,619 3403,612 3396,612 "
         class="fil7" />
      <polygon
         style="fill:#eedfba"
         id="polygon13654"
         points="3393,444 3404,447 3410,444 3410,439 3404,442 "
         class="fil7" />
      <path
         inkscape:connector-curvature="0"
         style="fill:url(#id352)"
         id="path13656"
         d="m 2488,246 c 6,-34 30,-58 65,-63 225,-29 472,-32 750,0 36,4 60,29 65,63 24,140 24,289 0,429 -5,34 -29,58 -65,63 -278,32 -525,28 -750,0 -35,-5 -59,-29 -65,-63 -23,-140 -23,-289 0,-429 z"
         class="fil1081" />
      <path
         style="fill:#d5ad51;fill-rule:nonzero"
         inkscape:connector-curvature="0"
         id="path13658"
         d="m 2486,246 c 3,-18 11,-33 23,-44 11,-11 26,-18 44,-21 112,-14 230,-22 355,-23 125,0 256,7 396,23 18,2 33,10 44,20 12,12 19,27 22,45 12,70 18,142 18,214 0,73 -6,145 -18,215 -3,18 -10,33 -22,44 -11,11 -26,18 -44,21 -140,16 -271,23 -396,22 -125,0 -243,-8 -355,-22 -18,-3 -33,-10 -44,-21 -12,-11 -20,-26 -23,-44 -11,-70 -17,-142 -17,-215 0,-72 6,-144 17,-214 z m 25,-41 c -11,10 -18,24 -21,41 -12,70 -17,142 -17,214 0,73 5,145 17,215 3,16 10,31 21,41 11,11 25,17 42,20 113,14 231,22 355,23 125,0 256,-7 395,-23 17,-2 31,-9 42,-19 11,-11 19,-26 21,-42 12,-70 18,-142 18,-215 0,-72 -6,-144 -18,-214 -2,-17 -10,-31 -21,-42 -11,-10 -25,-17 -42,-19 -139,-16 -270,-23 -395,-23 -124,1 -242,9 -355,23 -17,2 -31,9 -42,20 z"
         class="fil10" />
      <polygon
         style="fill:#836221"
         id="polygon13660"
         points="2476,319 2461,324 2452,330 2453,322 2462,317 "
         class="fil11" />
      <polygon
         style="fill:#836221"
         id="polygon13662"
         points="3393,444 3404,446 3410,444 3410,439 3404,442 "
         class="fil11" />
      <polygon
         style="fill:#836221"
         id="polygon13664"
         points="3386,609 3395,618 3402,619 3403,612 3396,612 "
         class="fil11" />
      <polygon
         style="fill:#836221"
         id="polygon13666"
         points="2475,643 2466,654 2459,655 2458,648 2465,647 "
         class="fil11" />
      <polygon
         style="fill:#836221"
         id="polygon13668"
         points="2923,772 2939,777 2898,781 2876,777 2905,770 "
         class="fil11" />
    </g>
    <g
       id="g13920"
       style="clip-rule:evenodd;fill-rule:evenodd;image-rendering:optimizeQuality;shape-rendering:geometricPrecision;text-rendering:geometricPrecision"
       transform="matrix(0.26458333,0,0,0.26458333,-664.37831,9.4282051)">
      <path
         style="fill:#b9d1cd"
         inkscape:connector-curvature="0"
         id="path13922"
         d="m 2550,129 c -4,31 -79,137 -134,137 -1,-1 -4,-2 -4,-3 14,-112 30,-125 134,-137 1,0 3,2 4,3 z"
         class="fil58" />
      <path
         inkscape:connector-curvature="0"
         style="fill:url(#id598)"
         id="path13924"
         d="m 2546,126 c -4,31 -79,137 -134,137 14,-115 26,-124 134,-137 z"
         class="fil1102" />
      <path
         style="fill:#ffffff"
         inkscape:connector-curvature="0"
         id="path13926"
         d="m 2542,140 c -16,37 -70,108 -116,121 13,-96 28,-110 116,-121 z"
         class="fil60" />
      <path
         inkscape:connector-curvature="0"
         style="fill:url(#id541)"
         id="path13928"
         d="m 2539,142 c -16,36 -67,103 -111,116 12,-92 26,-105 111,-116 z"
         class="fil1103" />
      <g
         clip-path="url(#id78)"
         id="g13930">
        <g
           id="g13932">
          <polygon
             style="fill:#ffffff;fill-opacity:0.2"
             points="2477,139 2534,267 2505,267 2448,139 "
             class="fil62"
             id="polygon13934" />
          <polygon
             style="fill:#ffffff;fill-opacity:0.2"
             id="polygon13936"
             points="2443,139 2500,267 2485,267 2428,139 "
             class="fil62" />
        </g>
      </g>
      <path
         style="fill:none"
         inkscape:connector-curvature="0"
         id="path13938"
         d="m 2539,142 c -16,36 -67,103 -111,116 12,-92 26,-105 111,-116 z"
         class="fil50" />
      <polygon
         style="fill:#ffffff"
         id="polygon13940"
         points="2439,235 2451,233 2438,238 2431,245 2428,253 2427,246 2423,247 2428,241 2431,232 2431,239 "
         class="fil60" />
      <polygon
         style="fill:#7f9995"
         id="polygon13942"
         points="2439,234 2451,233 2438,237 2430,244 2428,251 2428,244 2423,247 2428,240 2431,230 2431,238 "
         class="fil24" />
      <polygon
         style="fill:#ffffff"
         id="polygon13944"
         points="2512,158 2523,156 2533,157 2537,161 2534,165 2531,161 2523,158 "
         class="fil60" />
      <polygon
         style="fill:#7f9995"
         id="polygon13946"
         points="2512,158 2524,154 2533,156 2537,159 2535,164 2531,160 2523,157 "
         class="fil24" />
    </g>
    <g
       id="g13948"
       style="clip-rule:evenodd;fill-rule:evenodd;image-rendering:optimizeQuality;shape-rendering:geometricPrecision;text-rendering:geometricPrecision"
       transform="matrix(0.26458333,0,0,0.26458333,-679.19497,9.4282051)">
      <path
         style="fill:#b9d1cd"
         inkscape:connector-curvature="0"
         id="path13950"
         d="m 3306,129 c 4,31 79,137 134,137 1,-1 4,-2 4,-3 -14,-112 -30,-125 -134,-137 -1,0 -3,2 -4,3 z"
         class="fil58" />
      <path
         inkscape:connector-curvature="0"
         style="fill:url(#radialGradient24721)"
         id="path13952"
         d="m 3310,126 c 4,31 79,137 134,137 -14,-115 -26,-124 -134,-137 z"
         class="fil1104" />
      <path
         style="fill:#ffffff"
         inkscape:connector-curvature="0"
         id="path13954"
         d="m 3314,140 c 16,37 70,108 116,121 -13,-96 -28,-110 -116,-121 z"
         class="fil60" />
      <path
         inkscape:connector-curvature="0"
         style="fill:url(#id548)"
         id="path13956"
         d="m 3317,142 c 16,36 67,103 111,116 -12,-92 -26,-105 -111,-116 z"
         class="fil1105" />
      <g
         clip-path="url(#id79)"
         id="g13958">
        <g
           id="g13960">
          <polygon
             style="fill:#ffffff;fill-opacity:0.2"
             points="3339,134 3369,134 3426,262 3397,262 "
             class="fil62"
             id="polygon13962" />
          <polygon
             style="fill:#ffffff;fill-opacity:0.2"
             id="polygon13964"
             points="3320,134 3334,134 3391,262 3377,262 "
             class="fil62" />
        </g>
      </g>
      <path
         style="fill:none"
         inkscape:connector-curvature="0"
         id="path13966"
         d="m 3317,142 c 16,36 67,103 111,116 -12,-92 -26,-105 -111,-116 z"
         class="fil50" />
      <polygon
         style="fill:#ffffff"
         id="polygon13968"
         points="3429,246 3433,247 3428,241 3425,232 3425,239 3417,235 3405,233 3418,238 3425,245 3428,253 "
         class="fil60" />
      <polygon
         style="fill:#7f9995"
         id="polygon13970"
         points="3429,244 3433,247 3428,240 3425,230 3425,238 3417,234 3405,233 3418,237 3426,244 3428,251 "
         class="fil24" />
      <polygon
         style="fill:#ffffff"
         id="polygon13972"
         points="3323,157 3319,161 3322,165 3325,161 3333,158 3344,158 3333,156 "
         class="fil60" />
      <polygon
         style="fill:#7f9995"
         id="polygon13974"
         points="3323,156 3319,159 3321,164 3325,160 3333,157 3344,158 3332,154 "
         class="fil24" />
    </g>
    <g
       id="g13976"
       style="clip-rule:evenodd;fill-rule:evenodd;image-rendering:optimizeQuality;shape-rendering:geometricPrecision;text-rendering:geometricPrecision"
       transform="matrix(0.26458333,0,0,0.26458333,-664.37831,85.363621)">
      <path
         style="fill:#b9d1cd"
         inkscape:connector-curvature="0"
         id="path13978"
         d="m 2550,805 c -4,-30 -79,-136 -134,-136 -1,0 -4,2 -4,3 14,111 30,124 134,137 1,0 3,-2 4,-4 z"
         class="fil58" />
      <path
         inkscape:connector-curvature="0"
         style="fill:url(#id600)"
         id="path13980"
         d="m 2546,809 c -4,-31 -79,-137 -134,-137 14,115 26,124 134,137 z"
         class="fil1106" />
      <path
         style="fill:#ffffff"
         inkscape:connector-curvature="0"
         id="path13982"
         d="m 2542,795 c -16,-37 -70,-108 -116,-121 13,96 28,110 116,121 z"
         class="fil60" />
      <path
         inkscape:connector-curvature="0"
         style="fill:url(#id542)"
         id="path13984"
         d="m 2539,793 c -16,-36 -67,-103 -111,-116 12,92 26,105 111,116 z"
         class="fil1107" />
      <g
         clip-path="url(#id80)"
         id="g13986">
        <g
           id="g13988">
          <polygon
             style="fill:#ffffff;fill-opacity:0.2"
             points="2481,801 2424,674 2453,674 2510,801 "
             class="fil62"
             id="polygon13990" />
          <polygon
             style="fill:#ffffff;fill-opacity:0.2"
             id="polygon13992"
             points="2515,801 2458,674 2473,674 2530,801 "
             class="fil62" />
        </g>
      </g>
      <path
         style="fill:none"
         inkscape:connector-curvature="0"
         id="path13994"
         d="m 2539,793 c -16,-36 -67,-103 -111,-116 12,92 26,105 111,116 z"
         class="fil50" />
      <polygon
         style="fill:#ffffff"
         id="polygon13996"
         points="2423,688 2428,693 2431,703 2431,696 2439,700 2451,702 2438,697 2431,690 2428,682 2427,689 "
         class="fil60" />
      <polygon
         style="fill:#7f9995"
         id="polygon13998"
         points="2423,688 2428,695 2431,705 2431,697 2439,701 2451,702 2438,698 2430,691 2428,683 2428,690 "
         class="fil24" />
      <polygon
         style="fill:#ffffff"
         id="polygon14000"
         points="2537,774 2534,770 2531,774 2523,777 2512,777 2523,779 2533,777 "
         class="fil60" />
      <polygon
         style="fill:#7f9995"
         id="polygon14002"
         points="2537,775 2535,771 2531,775 2523,778 2512,777 2524,780 2533,779 "
         class="fil24" />
    </g>
    <g
       id="g14004"
       style="clip-rule:evenodd;fill-rule:evenodd;image-rendering:optimizeQuality;shape-rendering:geometricPrecision;text-rendering:geometricPrecision"
       transform="matrix(0.26458333,0,0,0.26458333,-678.93039,85.363621)">
      <path
         style="fill:#b9d1cd"
         inkscape:connector-curvature="0"
         id="path14006"
         d="m 3306,805 c 4,-30 79,-136 134,-136 1,0 4,2 4,3 -14,111 -30,124 -134,137 -1,0 -3,-2 -4,-4 z"
         class="fil58" />
      <path
         inkscape:connector-curvature="0"
         style="fill:url(#id495)"
         id="path14008"
         d="m 3310,809 c 4,-31 79,-137 134,-137 -14,115 -26,124 -134,137 z"
         class="fil1108" />
      <path
         style="fill:#ffffff"
         inkscape:connector-curvature="0"
         id="path14010"
         d="m 3314,795 c 16,-37 70,-108 116,-121 -13,96 -28,110 -116,121 z"
         class="fil60" />
      <path
         inkscape:connector-curvature="0"
         style="fill:url(#id549)"
         id="path14012"
         d="m 3317,793 c 16,-36 67,-103 111,-116 -12,92 -26,105 -111,116 z"
         class="fil1109" />
      <g
         clip-path="url(#id81)"
         id="g14014">
        <g
           id="g14016">
          <polygon
             style="fill:#ffffff;fill-opacity:0.2"
             points="3379,796 3322,668 3351,668 3408,796 "
             class="fil62"
             id="polygon14018" />
          <polygon
             style="fill:#ffffff;fill-opacity:0.2"
             id="polygon14020"
             points="3413,796 3356,668 3371,668 3428,796 "
             class="fil62" />
        </g>
      </g>
      <path
         style="fill:none"
         inkscape:connector-curvature="0"
         id="path14022"
         d="m 3317,793 c 16,-36 67,-103 111,-116 -12,92 -26,105 -111,116 z"
         class="fil50" />
      <polygon
         style="fill:#ffffff"
         id="polygon14024"
         points="3433,688 3428,693 3425,703 3425,696 3417,700 3405,702 3418,697 3425,690 3428,682 3429,689 "
         class="fil60" />
      <polygon
         style="fill:#7f9995"
         id="polygon14026"
         points="3433,688 3428,695 3425,705 3425,697 3417,701 3405,702 3418,698 3426,691 3428,683 3429,690 "
         class="fil24" />
      <polygon
         style="fill:#ffffff"
         id="polygon14028"
         points="3319,774 3322,770 3325,774 3333,777 3344,777 3333,779 3323,777 "
         class="fil60" />
      <polygon
         style="fill:#7f9995"
         id="polygon14030"
         points="3319,775 3321,771 3325,775 3333,778 3344,777 3332,780 3323,779 "
         class="fil24" />
    </g>
  </g>
</svg>
